<svg width="26" height="26" viewBox="0 0 26 26" fill="none" xmlns="http://www.w3.org/2000/svg">
<path fill-rule="evenodd" clip-rule="evenodd" d="M12.9999 3.90891C14.1984 2.68461 15.7712 2.00305 17.405 2C19.1712 2 20.8575 2.80102 22.0916 4.21126C23.3196 5.62264 24.0036 7.50385 24 9.45963C24.0036 11.4154 23.3196 13.2966 22.0916 14.708C21.2771 15.6388 20.4636 16.5921 19.646 17.5488C17.9842 19.4938 16.305 21.4603 14.5603 23.3116L14.5573 23.3161C14.1241 23.7684 13.5465 24.014 12.95 23.9994C12.3536 23.9848 11.7864 23.7113 11.3718 23.2383L3.90711 14.708C1.3643 11.8006 1.3643 7.11863 3.90711 4.21239C5.08245 2.8545 6.6954 2.06137 8.39704 2.00458C10.0987 1.94778 11.7522 2.63189 12.9999 3.90891Z" fill="white"/>
</svg>
