<svg width="28" height="28" viewBox="0 0 28 28" fill="none" xmlns="http://www.w3.org/2000/svg">
<path d="M11.4372 3.08486C11.544 3.13641 11.6379 3.21035 11.7119 3.30137C11.7859 3.39239 11.8383 3.49823 11.8652 3.61129C11.8943 3.73543 12.6923 7.05743 12.6923 9.28572C12.6923 10.7786 11.9783 12.1096 10.8669 12.9723C10.4631 13.2866 10.2692 13.6291 10.2692 13.9151V14.6789C10.2692 14.7155 10.2714 14.7501 10.2757 14.7826C10.3306 15.1723 10.5293 16.6196 10.7151 18.1203C10.8976 19.5927 11.0769 21.1987 11.0769 21.8571C11.0769 22.6907 10.7365 23.4901 10.1307 24.0795C9.52477 24.6689 8.70301 25 7.84615 25C6.9893 25 6.16754 24.6689 5.56165 24.0795C4.95577 23.4901 4.61538 22.6907 4.61538 21.8571C4.61538 21.1971 4.79469 19.5943 4.97723 18.1203C5.163 16.6196 5.36169 15.1723 5.41662 14.7826L5.42308 14.6789V13.9151C5.42308 13.6291 5.22923 13.2866 4.82538 12.9723C4.25593 12.5307 3.79611 11.9699 3.48008 11.3317C3.16406 10.6935 2.99997 9.99414 3 9.28572C3 7.06529 3.79154 3.76057 3.82708 3.61286C3.86907 3.43818 3.97067 3.28249 4.1153 3.1712C4.25992 3.0599 4.43905 2.99955 4.62346 3C5.07577 3 5.44246 3.35672 5.44246 3.79672V8.50786C5.43609 8.61398 5.45215 8.72024 5.48964 8.82009C5.52714 8.91993 5.58527 9.01124 5.66045 9.08838C5.73563 9.16552 5.82627 9.22685 5.92677 9.26859C6.02727 9.31032 6.13549 9.33158 6.24476 9.33104C6.35404 9.3305 6.46203 9.30818 6.56209 9.26546C6.66215 9.22274 6.75215 9.16052 6.82652 9.08264C6.9009 9.00477 6.95808 8.91289 6.99453 8.81268C7.03098 8.71247 7.04593 8.60605 7.03846 8.5V3.78572C7.03846 3.57733 7.12356 3.37748 7.27503 3.23013C7.4265 3.08278 7.63194 3 7.84615 3C8.06037 3 8.26581 3.08278 8.41728 3.23013C8.56875 3.37748 8.65385 3.57733 8.65385 3.78572V8.54086C8.65834 8.74716 8.7469 8.94327 8.90004 9.08605C9.05318 9.22884 9.25835 9.30659 9.47042 9.30222C9.68249 9.29784 9.88409 9.21169 10.0309 9.06272C10.1776 8.91375 10.2576 8.71416 10.2531 8.50786V3.79357C10.2531 3.35515 10.6182 3 11.0705 3C11.106 3 11.2643 3 11.4372 3.08486ZM15.1154 10.0714C15.1154 8.19597 15.8812 6.39733 17.2445 5.07118C18.6077 3.74503 20.4567 3 22.3846 3C22.5988 3 22.8043 3.08278 22.9557 3.23013C23.1072 3.37748 23.1923 3.57733 23.1923 3.78572V13.1719L23.223 13.45C23.3515 14.6228 23.4748 15.7962 23.5929 16.97C23.7916 18.9437 24 21.1563 24 21.8571C24 22.6907 23.6596 23.4901 23.0537 24.0795C22.4478 24.6689 21.6261 25 20.7692 25C19.9124 25 19.0906 24.6689 18.4847 24.0795C17.8788 23.4901 17.5385 22.6907 17.5385 21.8571C17.5385 21.1563 17.7468 18.9437 17.9455 16.97C18.0473 15.969 18.1491 15.0104 18.225 14.3001L18.2573 14H16.7308C16.3023 14 15.8915 13.8344 15.5885 13.5397C15.2856 13.245 15.1154 12.8453 15.1154 12.4286V10.0714Z" fill="white"/>
</svg>
