<svg width="28" height="28" viewBox="0 0 28 28" fill="none" xmlns="http://www.w3.org/2000/svg">
<path fill-rule="evenodd" clip-rule="evenodd" d="M16.0602 3.1672C15.6318 3 15.0876 3 14.0003 3C12.9131 3 12.37 3 11.9404 3.1672C11.6578 3.27692 11.4008 3.43866 11.1842 3.64311C10.9676 3.84756 10.7957 4.09069 10.6783 4.3585C10.5695 4.6038 10.5278 4.8909 10.5104 5.3078C10.5022 5.60975 10.4133 5.90475 10.252 6.16509C10.0908 6.42543 9.86258 6.64257 9.58876 6.7961C9.30942 6.94361 8.9954 7.02176 8.6758 7.0233C8.3562 7.02484 8.04136 6.94972 7.76046 6.8049C7.36909 6.6091 7.0854 6.5013 6.80519 6.4661C6.19219 6.39012 5.57235 6.54662 5.07994 6.9017C4.71173 7.1679 4.43962 7.6123 3.89657 8.5C3.35236 9.3877 3.08142 9.831 3.02005 10.2655C2.939 10.8441 3.10573 11.4293 3.48321 11.8924C3.65457 12.1036 3.89657 12.2807 4.27057 12.5029C4.82289 12.8296 5.1772 13.3862 5.1772 14C5.1772 14.6138 4.82289 15.1704 4.27173 15.496C3.89657 15.7193 3.65457 15.8964 3.48205 16.1076C3.29628 16.3366 3.15986 16.5982 3.08059 16.8774C3.00132 17.1565 2.98074 17.4478 3.02005 17.7345C3.08142 18.1679 3.35236 18.6123 3.89657 19.5C4.44078 20.3877 4.71173 20.831 5.07994 21.0983C5.57088 21.4536 6.19151 21.6098 6.80519 21.5339C7.0854 21.4987 7.36909 21.3909 7.76046 21.1951C8.0415 21.0501 8.35656 20.9749 8.67638 20.9764C8.9962 20.9779 9.31043 21.0562 9.58992 21.2039C10.1527 21.5119 10.4861 22.0784 10.5104 22.6922C10.5278 23.1102 10.5695 23.3962 10.6783 23.6415C10.9145 24.1805 11.3684 24.6095 11.9404 24.8328C12.3689 25 12.9131 25 14.0003 25C15.0876 25 15.6318 25 16.0602 24.8328C16.3429 24.7231 16.5999 24.5613 16.8165 24.3569C17.0331 24.1524 17.205 23.9093 17.3223 23.6415C17.4312 23.3962 17.4728 23.1102 17.4902 22.6922C17.5134 22.0784 17.848 21.5108 18.4119 21.2039C18.6912 21.0564 19.0053 20.9782 19.3249 20.9767C19.6445 20.9752 19.9593 21.0503 20.2402 21.1951C20.6316 21.3909 20.9153 21.4987 21.1955 21.5339C21.8091 21.6109 22.4298 21.4536 22.9207 21.0983C23.2889 20.8321 23.561 20.3877 24.1041 19.5C24.6483 18.6123 24.9192 18.169 24.9806 17.7345C25.0198 17.4477 24.999 17.1564 24.9195 16.8772C24.84 16.5981 24.7034 16.3366 24.5175 16.1076C24.3461 15.8964 24.1041 15.7193 23.7301 15.4971C23.1778 15.1704 22.8235 14.6138 22.8235 14C22.8235 13.3862 23.1778 12.8296 23.7289 12.504C24.1041 12.2807 24.3461 12.1036 24.5186 11.8924C24.7044 11.6634 24.8408 11.4018 24.9201 11.1226C24.9993 10.8435 25.0199 10.5522 24.9806 10.2655C24.9192 9.8321 24.6483 9.3877 24.1041 8.5C23.5599 7.6123 23.2889 7.169 22.9207 6.9017C22.4283 6.54662 21.8085 6.39012 21.1955 6.4661C20.9153 6.5013 20.6316 6.6091 20.2402 6.8049C19.9592 6.94991 19.6441 7.02514 19.3243 7.0236C19.0045 7.02206 18.6902 6.94381 18.4107 6.7961C18.1371 6.64243 17.9091 6.42524 17.7481 6.16491C17.5871 5.90458 17.4984 5.60965 17.4902 5.3078C17.4728 4.8898 17.4312 4.6038 17.3223 4.3585C17.205 4.09069 17.0331 3.84756 16.8165 3.64311C16.5999 3.43866 16.3429 3.27692 16.0602 3.1672ZM14.0003 17.3C15.934 17.3 17.5006 15.8227 17.5006 14C17.5006 12.1773 15.9328 10.7 14.0003 10.7C12.0678 10.7 10.5 12.1773 10.5 14C10.5 15.8227 12.0678 17.3 14.0003 17.3Z" fill="white"/>
</svg>
